<svg width="30" height="28" viewBox="0 0 30 28" fill="none" xmlns="http://www.w3.org/2000/svg">
<path d="M27.8845 8.087L7.2805 5.807L6.0245 1.048C5.98084 0.888385 5.88615 0.747442 5.75488 0.646688C5.62361 0.545934 5.46298 0.490904 5.2975 0.49H2.2045C2.09271 0.339519 1.94759 0.21697 1.78052 0.131958C1.61344 0.0469453 1.42895 0.00177965 1.2415 0C0.912234 0 0.596453 0.1308 0.363627 0.363627C0.130801 0.596453 0 0.912234 0 1.2415C0 1.57077 0.130801 1.88655 0.363627 2.11937C0.596453 2.3522 0.912234 2.483 1.2415 2.483C1.6415 2.483 1.9795 2.283 2.2065 1.991H4.7185L9.9485 21.791C9.378 22.3983 9.05982 23.1998 9.0585 24.033C9.05811 24.4655 9.14298 24.8938 9.30827 25.2934C9.47355 25.6931 9.71601 26.0562 10.0218 26.362C10.3275 26.6679 10.6906 26.9104 11.0902 27.0759C11.4898 27.2413 11.918 27.3263 12.3505 27.326C13.2243 27.3263 14.0625 26.9795 14.6807 26.362C15.299 25.7445 15.6467 24.9068 15.6475 24.033C15.6458 23.7825 15.6146 23.5332 15.5545 23.29H21.0875C21.0283 23.5333 20.9974 23.7826 20.9955 24.033C20.9955 25.853 22.4715 27.326 24.2915 27.326C26.1115 27.326 27.5845 25.853 27.5845 24.033C27.5848 23.159 27.2379 22.3207 26.6202 21.7024C26.0025 21.0842 25.1645 20.7365 24.2905 20.736C23.3405 20.736 22.4905 21.146 21.8885 21.789H14.7525C14.4463 21.4575 14.0748 21.1928 13.6615 21.0116C13.2481 20.8304 12.8018 20.7366 12.3505 20.736C11.9705 20.736 11.6125 20.814 11.2735 20.932L11.0915 20.246H25.6745C26.2349 20.2345 26.7753 20.0351 27.2087 19.6796C27.6421 19.3242 27.9435 18.8333 28.0645 18.286L29.6395 10.488C29.6661 10.3516 29.6795 10.213 29.6795 10.074C29.6803 9.57899 29.497 9.10138 29.1652 8.73398C28.8335 8.36658 28.377 8.13662 27.8845 8.087ZM24.2925 24.327C24.2142 24.3267 24.1391 24.2956 24.0835 24.2404C24.0279 24.1852 23.9963 24.1103 23.9955 24.032C23.9985 23.866 24.1305 23.734 24.2935 23.734C24.4565 23.734 24.5885 23.866 24.5905 24.031C24.5895 24.1092 24.5577 24.1838 24.5022 24.2388C24.4466 24.2938 24.3717 24.3247 24.2935 24.325L24.2925 24.327ZM26.0725 16.832L27.0205 15.882L26.7025 17.462L26.0725 16.832ZM11.6195 7.795L12.6545 8.833L11.3645 10.123L10.0715 8.833L11.1585 7.745L11.6195 7.795ZM16.1175 8.293L16.6555 8.833L15.3655 10.123L14.0725 8.833L14.7605 8.143L16.1175 8.293ZM8.4945 10.409L9.3645 9.541L10.6545 10.833L9.3645 12.123L8.7995 11.56L8.4955 10.408L8.4945 10.409ZM8.1995 9.289L7.8715 8.049L8.6565 8.834L8.1995 9.289ZM20.6545 12.833L19.3645 14.123L18.0715 12.833L19.3635 11.54L20.6545 12.833ZM20.0715 10.833L21.3635 9.541L22.6535 10.833L21.3635 12.125L20.0715 10.833ZM17.3645 12.123L16.0715 10.833L17.3635 9.54L18.6535 10.832L17.3645 12.123ZM16.6545 12.833L15.3645 14.123L14.0725 12.833L15.3645 11.54L16.6545 12.833ZM13.3645 12.123L12.0715 10.833L13.3635 9.54L14.6535 10.832L13.3645 12.123ZM12.6545 12.833L11.3645 14.123L10.0715 12.833L11.3635 11.54L12.6545 12.833ZM9.3645 13.54L10.6545 14.832L9.8705 15.615L9.3305 13.571L9.3635 13.538L9.3645 13.54ZM10.1665 16.737L11.3635 15.54L12.6535 16.832L11.3635 18.122L10.2335 16.992L10.1665 16.737ZM12.0725 14.832L13.3625 13.539L14.6555 14.831L13.3655 16.121L12.0735 14.831L12.0725 14.832ZM15.3645 15.539L16.6565 16.831L15.3645 18.121L14.0725 16.831L15.3645 15.539ZM16.0725 14.831L17.3645 13.538L18.6545 14.83L17.3645 16.12L16.0725 14.831ZM19.3625 15.538L20.6555 16.83L19.3655 18.12L18.0735 16.828L19.3625 15.538ZM20.0725 14.83L21.3625 13.537L22.6555 14.829L21.3655 16.119L20.0725 14.83ZM22.0725 12.83L23.3625 11.537L24.6555 12.829L23.3655 14.119L22.0725 12.83ZM24.0725 10.83L25.3625 9.537L26.6545 10.833L25.3645 12.125L24.0715 10.832L24.0725 10.83ZM23.3625 10.122L22.2075 8.966L24.2895 9.196L23.3625 10.122ZM20.6565 8.833L19.3665 10.125L18.0735 8.833L18.3635 8.543L20.6165 8.793L20.6565 8.833ZM13.3665 8.123L13.2145 7.973L13.4875 8.003L13.3675 8.123H13.3665ZM9.3665 8.125L8.7165 7.475L9.8865 7.605L9.3665 8.125ZM13.3665 17.54L14.5715 18.745H12.1615L13.3665 17.54ZM17.3665 17.54L18.5715 18.746H16.1595L17.3665 17.54ZM21.3665 17.54L22.5735 18.747H20.1595L21.3665 17.54ZM22.0735 16.832L23.3655 15.539L24.6555 16.831L23.3655 18.121L22.0735 16.832ZM24.0735 14.832L25.3655 13.54L26.6555 14.83L25.3655 16.123L24.0725 14.833L24.0735 14.832ZM27.3655 14.122L26.0735 12.832L27.3635 11.54L27.8085 11.984L27.3785 14.108L27.3645 14.123L27.3655 14.122ZM27.8655 9.622L27.3655 10.122L26.7055 9.465L27.7225 9.577C27.7765 9.585 27.8225 9.603 27.8665 9.621L27.8655 9.622ZM12.3525 24.326C12.2768 24.3216 12.2057 24.2885 12.1537 24.2333C12.1017 24.1782 12.0727 24.1053 12.0727 24.0295C12.0727 23.9537 12.1017 23.8808 12.1537 23.8257C12.2057 23.7705 12.2768 23.7374 12.3525 23.733C12.4279 23.7374 12.4988 23.7704 12.5506 23.8254C12.6024 23.8803 12.6313 23.953 12.6313 24.0285C12.6313 24.104 12.6024 24.1767 12.5506 24.2316C12.4988 24.2866 12.4279 24.3196 12.3525 24.324V24.326ZM25.6755 18.746H24.1585L25.3655 17.539L26.2955 18.469C26.1085 18.639 25.8725 18.759 25.6755 18.746Z" fill="#A13941"/>
</svg>
