<svg width="29" height="29" viewBox="0 0 29 29" fill="none" xmlns="http://www.w3.org/2000/svg">
<path d="M1 14.5C1 10.9196 2.42232 7.4858 4.95406 4.95406C7.4858 2.42232 10.9196 1 14.5 1C18.0804 1 21.5142 2.42232 24.0459 4.95406C26.5777 7.4858 28 10.9196 28 14.5V23.0894C28 24.5204 28 25.2325 27.7874 25.8046C27.6183 26.2579 27.3537 26.6695 27.0116 27.0116C26.6695 27.3537 26.2579 27.6183 25.8046 27.7874C25.2325 28 24.5187 28 23.0894 28H14.5C10.9196 28 7.4858 26.5777 4.95406 24.0459C2.42232 21.5142 1 18.0804 1 14.5Z" stroke="white"/>
<path d="M9.4375 12.8125H19.5625M14.5 19.5625H19.5625" stroke="white" stroke-linecap="round" stroke-linejoin="round"/>
</svg>
