<svg width="24" height="26" viewBox="0 0 24 26" fill="none" xmlns="http://www.w3.org/2000/svg">
<path fill-rule="evenodd" clip-rule="evenodd" d="M14.2389 3.01343C13.6368 2.4434 12.8346 2.12509 12 2.12509C11.1654 2.12509 10.3632 2.4434 9.76109 3.01343L3.11333 9.30724C2.95037 9.4614 2.84076 9.66226 2.80005 9.88134C2.00391 14.1645 1.94512 18.5493 2.62617 22.8517L2.78712 23.8737H7.0652V15.0695C7.0652 14.7875 7.17875 14.5171 7.38087 14.3177C7.58299 14.1183 7.85713 14.0063 8.14298 14.0063H15.857C16.1429 14.0063 16.417 14.1183 16.6191 14.3177C16.8213 14.5171 16.9348 14.7875 16.9348 15.0695V23.8737H21.2129L21.3738 22.8531C22.0556 18.5503 21.9973 14.165 21.2014 9.88134C21.1603 9.66209 21.0502 9.46121 20.8867 9.30724L14.2389 3.01343ZM8.26944 1.47967C9.27286 0.530167 10.6095 0 12 0C13.3905 0 14.7271 0.530167 15.7306 1.47967L22.3798 7.77348C22.8684 8.23559 23.1989 8.83946 23.321 9.49719C24.1603 14.0158 24.222 18.6417 23.5035 23.1805L23.2449 24.8206C23.1931 25.1493 23.0238 25.4489 22.7676 25.6652C22.5114 25.8815 22.1853 26.0002 21.8481 26H15.857C15.5712 26 15.297 25.888 15.0949 25.6886C14.8928 25.4892 14.7792 25.2188 14.7792 24.9369V16.1326H9.22076V24.9369C9.22076 25.2188 9.10721 25.4892 8.90508 25.6886C8.70296 25.888 8.42882 26 8.14298 26H2.15195C1.81474 26.0002 1.48858 25.8815 1.2324 25.6652C0.976225 25.4489 0.806941 25.1493 0.755142 24.8206L0.496474 23.1805C-0.221973 18.6417 -0.160274 14.0158 0.678979 9.49719C0.801127 8.83946 1.13165 8.23559 1.62024 7.77206L8.26944 1.47967Z" fill="#A13941"/>
</svg>
