<svg width="27" height="29" viewBox="0 0 27 29" fill="none" xmlns="http://www.w3.org/2000/svg">
<path d="M13.5 0.916656C10.7926 0.916656 8.19608 1.99217 6.28165 3.90661C4.36721 5.82104 3.2917 8.41757 3.2917 11.125V16.27C3.29191 16.4962 3.23948 16.7194 3.13857 16.9219L0.634614 21.9283C0.512298 22.1729 0.454542 22.4447 0.466831 22.7179C0.479119 22.9911 0.561044 23.2566 0.704826 23.4892C0.848607 23.7219 1.04947 23.9139 1.28834 24.047C1.5272 24.1802 1.79614 24.25 2.06961 24.25H24.9304C25.2039 24.25 25.4729 24.1802 25.7117 24.047C25.9506 23.9139 26.1515 23.7219 26.2952 23.4892C26.439 23.2566 26.5209 22.9911 26.5332 22.7179C26.5455 22.4447 26.4878 22.1729 26.3654 21.9283L23.8629 16.9219C23.7615 16.7195 23.7086 16.4963 23.7084 16.27V11.125C23.7084 8.41757 22.6328 5.82104 20.7184 3.90661C18.804 1.99217 16.2074 0.916656 13.5 0.916656ZM13.5 28.625C12.5949 28.6255 11.7119 28.3452 10.9728 27.8228C10.2336 27.3004 9.67465 26.5617 9.37295 25.7083H17.6271C17.3254 26.5617 16.7665 27.3004 16.0273 27.8228C15.2881 28.3452 14.4051 28.6255 13.5 28.625Z" fill="white"/>
</svg>
