<svg width="31" height="27" viewBox="0 0 31 27" fill="none" xmlns="http://www.w3.org/2000/svg">
<path d="M28.7857 27H2.21429C0.993107 27 0 25.9909 0 24.75V18H2.21429V24.75H28.7857V18H31V24.75C31 25.9909 30.0069 27 28.7857 27Z" fill="#A13941"/>
<path d="M16.3333 14.4444V18.8889C16.3333 19.1836 16.4504 19.4662 16.6588 19.6746C16.8671 19.8829 17.1498 20 17.4444 20H21.8889C22.1836 20 22.4662 19.8829 22.6746 19.6746C22.8829 19.4662 23 19.1836 23 18.8889V14.4444C23 14.1498 22.8829 13.8671 22.6746 13.6588C22.4662 13.4504 22.1836 13.3333 21.8889 13.3333H17.4444C17.1498 13.3333 16.8671 13.4504 16.6588 13.6588C16.4504 13.8671 16.3333 14.1498 16.3333 14.4444ZM18.5556 15.5556H20.7778V17.7778H18.5556V15.5556ZM7.44444 14.4444V18.8889C7.44444 19.1836 7.56151 19.4662 7.76988 19.6746C7.97826 19.8829 8.26087 20 8.55556 20H13C13.2947 20 13.5773 19.8829 13.7857 19.6746C13.994 19.4662 14.1111 19.1836 14.1111 18.8889V14.4444C14.1111 14.1498 13.994 13.8671 13.7857 13.6588C13.5773 13.4504 13.2947 13.3333 13 13.3333H8.55556C8.26087 13.3333 7.97826 13.4504 7.76988 13.6588C7.56151 13.8671 7.44444 14.1498 7.44444 14.4444ZM9.66667 15.5556H11.8889V17.7778H9.66667V15.5556ZM16.3333 5.55556V10C16.3333 10.2947 16.4504 10.5773 16.6588 10.7857C16.8671 10.994 17.1498 11.1111 17.4444 11.1111H21.8889C22.1836 11.1111 22.4662 10.994 22.6746 10.7857C22.8829 10.5773 23 10.2947 23 10V5.55556C23 5.26087 22.8829 4.97826 22.6746 4.76988C22.4662 4.56151 22.1836 4.44444 21.8889 4.44444H17.4444C17.1498 4.44444 16.8671 4.56151 16.6588 4.76988C16.4504 4.97826 16.3333 5.26087 16.3333 5.55556ZM18.5556 6.66667H20.7778V8.88889H18.5556V6.66667ZM3 1.11111V10C3 10.2947 3.11706 10.5773 3.32544 10.7857C3.53381 10.994 3.81643 11.1111 4.11111 11.1111H13C13.2947 11.1111 13.5773 10.994 13.7857 10.7857C13.994 10.5773 14.1111 10.2947 14.1111 10V1.11111C14.1111 0.816426 13.994 0.533811 13.7857 0.325437C13.5773 0.117063 13.2947 0 13 0H4.11111C3.81643 0 3.53381 0.117063 3.32544 0.325437C3.11706 0.533811 3 0.816426 3 1.11111ZM5.22222 2.22222H11.8889V8.88889H5.22222V2.22222Z" fill="#A13941"/>
</svg>
