<svg width="16" height="19" viewBox="0 0 16 19" fill="none" xmlns="http://www.w3.org/2000/svg">
<path d="M1.5 9.5C1.5 9.93265 1.62829 10.3556 1.86866 10.7153C2.10903 11.075 2.45067 11.3554 2.85038 11.521C3.25009 11.6866 3.68993 11.7299 4.11426 11.6455C4.53859 11.5611 4.92837 11.3527 5.2343 11.0468C5.54022 10.7409 5.74856 10.3511 5.83297 9.92676C5.91737 9.50243 5.87405 9.06259 5.70849 8.66288C5.54292 8.26316 5.26254 7.92152 4.90281 7.68116C4.54308 7.44079 4.12015 7.3125 3.6875 7.3125M10.25 4.6875L5.875 7.75M10.25 14.3125L5.875 11.25M12.4375 17.375C12.8701 17.375 13.2931 17.2467 13.6528 17.0063C14.0125 16.766 14.2929 16.4243 14.4585 16.0246C14.6241 15.6249 14.6674 15.1851 14.583 14.7607C14.4986 14.3364 14.2902 13.9466 13.9843 13.6407C13.6784 13.3348 13.2886 13.1264 12.8643 13.042C12.4399 12.9576 12.0001 13.0009 11.6004 13.1665C11.2007 13.3321 10.859 13.6125 10.6187 13.9722C10.3783 14.3319 10.25 14.7549 10.25 15.1875M14.3319 4.90625C14.1156 5.28094 13.793 5.58306 13.4049 5.77442C13.0169 5.96578 12.5809 6.03777 12.1519 5.9813C11.723 5.92483 11.3204 5.74242 10.9951 5.45716C10.6698 5.17189 10.4364 4.79657 10.3245 4.37866C10.2125 3.96075 10.227 3.51902 10.366 3.10933C10.5051 2.69964 10.7626 2.3404 11.1058 2.07702C11.4491 1.81365 11.8627 1.65798 12.2944 1.6297C12.7262 1.60141 13.1566 1.70179 13.5313 1.91812" stroke="#A13941" stroke-width="1.5" stroke-linecap="round"/>
</svg>
